<svg class="main-svg" xmlns="http://www.w3.org/2000/svg" xmlns:xlink="http://www.w3.org/1999/xlink" width="1000" height="1200" style="" viewBox="0 0 1000 1200"><rect x="0" y="0" width="1000" height="1200" style="fill: rgb(255, 255, 255); fill-opacity: 1;"/><defs id="defs-7463a0"><g class="clips"/><g class="gradients"/><g class="patterns"/></defs><g class="bglayer"/><g class="layer-below"><g class="imagelayer"/><g class="shapelayer"/></g><g class="cartesianlayer"/><g class="polarlayer"/><g class="ternarylayer"/><g class="geolayer"/><g class="funnelarealayer"/><g class="pielayer"><g class="trace" stroke-linejoin="round" style="opacity: 1;"><g class="slice"><path class="surface" d="M242.28471852212328,323.5261180277087a55.44,55.44 0 0 0 -23.684718522123305,-105.56611802770877l0,-83.16a138.6,138.6 0 0 1 59.21179630530826,263.9152950692719Z" style="pointer-events: all; stroke-width: 0; fill: rgb(99, 110, 250); fill-opacity: 1; stroke: rgb(68, 68, 68); stroke-opacity: 1;"/><g class="slicetext"><text data-notex="1" class="slicetext" transform="translate(313.2666344319225,256.9106797346823)" text-anchor="middle" x="0" y="0" style="font-family: 'Open Sans', verdana, arial, sans-serif; font-size: 12px; fill: rgb(255, 255, 255); fill-opacity: 1; white-space: pre;">43%</text></g></g><g class="slice"><path class="surface" d="M218.6,217.95999999999998a55.44,55.44 0 0 0 -54.55757998933738,45.58789029156425l-81.83636998400605,-14.778164562653624a138.6,138.6 0 0 1 136.39394997334344,-113.96972572891062Z" style="pointer-events: all; stroke-width: 0; fill: rgb(239, 85, 59); fill-opacity: 1; stroke: rgb(68, 68, 68); stroke-opacity: 1;"/><g class="slicetext"><text data-notex="1" class="slicetext" transform="translate(156.390113514196,203.69994678696742)" text-anchor="middle" x="0" y="0" style="font-family: 'Open Sans', verdana, arial, sans-serif; font-size: 12px; fill: rgb(68, 68, 68); fill-opacity: 1; white-space: pre;">22.2%</text></g></g><g class="slice"><path class="surface" d="M164.04242001066262,263.5478902915642a55.44,55.44 0 0 0 17.434473628576104,51.02817768642032l-55.684659541141905,61.764101966976845a138.6,138.6 0 0 1 -43.58618407144026,-127.57044421605079Z" style="pointer-events: all; stroke-width: 0; fill: rgb(0, 204, 150); fill-opacity: 1; stroke: rgb(68, 68, 68); stroke-opacity: 1;"/><g class="slicetext"><text data-notex="1" class="slicetext" transform="translate(126.79076033584293,309.51788026452164)" text-anchor="middle" x="0" y="0" style="font-family: 'Open Sans', verdana, arial, sans-serif; font-size: 12px; fill: rgb(68, 68, 68); fill-opacity: 1; white-space: pre;">16.2%</text></g></g><g class="slice"><path class="surface" d="M181.4768936392387,314.57606797798456a55.44,55.44 0 0 0 37.37596236337865,14.26335539421458l0.3792840039260584,83.15913505829872a138.6,138.6 0 0 1 -93.43990590844662,-35.65838848553645Z" style="pointer-events: all; stroke-width: 0; fill: rgb(171, 99, 250); fill-opacity: 1; stroke: rgb(68, 68, 68); stroke-opacity: 1;"/><g class="slicetext"><text data-notex="1" class="slicetext" transform="translate(182.2857728519105,373.3084777655269)" text-anchor="middle" x="0" y="0" style="font-family: 'Open Sans', verdana, arial, sans-serif; font-size: 12px; fill: rgb(68, 68, 68); fill-opacity: 1; white-space: pre;">11.7%</text></g></g><g class="slice"><path class="surface" d="M218.85285600261736,328.8394233721991a55.44,55.44 0 0 0 9.017529039514221,-0.7799908726696345l13.90557756319739,81.98914874929426a138.6,138.6 0 0 1 -22.543822598785553,1.949977181674086Z" style="pointer-events: all; stroke-width: 0; fill: rgb(255, 161, 90); fill-opacity: 1; stroke: rgb(68, 68, 68); stroke-opacity: 1;"/><g class="slicetext"><text data-notex="1" class="slicetext" transform="translate(224.18707321881945,393.1126745616028)rotate(85.0563808841955)" text-anchor="middle" x="0" y="0" style="font-family: 'Open Sans', verdana, arial, sans-serif; font-size: 12px; fill: rgb(68, 68, 68); fill-opacity: 1; white-space: pre;">2.6%</text></g></g><g class="slice"><path class="surface" d="M227.8703850421316,328.0594324995295a55.44,55.44 0 0 0 7.051454139617443,-1.676499721840412l24.48275877262355,79.47439916653364a138.6,138.6 0 0 1 -17.628635349043606,4.19124930460103Z" style="pointer-events: all; stroke-width: 0; fill: rgb(25, 211, 243); fill-opacity: 1; stroke: rgb(68, 68, 68); stroke-opacity: 1;"/><g class="slicetext"><text data-notex="1" class="slicetext" transform="translate(274.3775970639033,440.0692221720786)" text-anchor="middle" x="0" y="0" style="font-family: 'Open Sans', verdana, arial, sans-serif; font-size: 12px; fill: rgb(42, 63, 95); fill-opacity: 1; white-space: pre;">2.08%</text></g><path class="textline" stroke-width="1.5" d="M250.65884706390327,408.24135242919084V435.3192221720786h3.625" fill="none" style="stroke: rgb(42, 63, 95); stroke-opacity: 1;"/></g><g class="slice"><path class="surface" d="M234.92183918174902,326.38293277768906a55.44,55.44 0 0 0 4.662304978477713,-1.6676397953546713l31.476216240340122,76.97293947350164a138.6,138.6 0 0 1 -11.65576244619428,4.169099488386678Z" style="pointer-events: all; stroke-width: 0; fill: rgb(255, 102, 146); fill-opacity: 1; stroke: rgb(68, 68, 68); stroke-opacity: 1;"/><g class="slicetext"><text data-notex="1" class="slicetext" transform="translate(288.9977973539592,425.5692221720786)" text-anchor="middle" x="0" y="0" style="font-family: 'Open Sans', verdana, arial, sans-serif; font-size: 12px; fill: rgb(42, 63, 95); fill-opacity: 1; white-space: pre;">1.42%</text></g><path class="textline" stroke-width="1.5" d="M265.2790473539592,403.90297520795V420.8192221720786h3.625" fill="none" style="stroke: rgb(42, 63, 95); stroke-opacity: 1;"/></g><g class="slice"><path class="surface" d="M239.58414416022674,324.7152929823344a55.44,55.44 0 0 0 2.7005743618965,-1.1891749546256392l35.52707778318487,75.18917704156318a138.6,138.6 0 0 1 -6.75143590474125,2.972937386564098Z" style="pointer-events: all; stroke-width: 0; fill: rgb(182, 232, 128); fill-opacity: 1; stroke: rgb(68, 68, 68); stroke-opacity: 1;"/><g class="slicetext"><text data-notex="1" class="slicetext" transform="translate(301.9871112413369,411.0692221720786)" text-anchor="middle" x="0" y="0" style="font-family: 'Open Sans', verdana, arial, sans-serif; font-size: 12px; fill: rgb(42, 63, 95); fill-opacity: 1; white-space: pre;">0.847%</text></g></g><g class="titletext"><text data-notex="1" class="titletext" transform="translate(218.6,273.4)translate(0,4.75)" text-anchor="middle" x="0" y="0" style="font-family: 'Open Sans', verdana, arial, sans-serif; font-size: 12px; fill: rgb(42, 63, 95); fill-opacity: 1; white-space: pre;">2017</text></g></g><g class="trace" stroke-linejoin="round" style="opacity: 1;"><g class="slice"><path class="surface" d="M791.0538967010867,328.8144741578914a57.12,57.12 0 0 0 -13.853896701086715,-112.53447415789142l0,-85.67999999999999a142.79999999999998,142.79999999999998 0 0 1 34.634741752716785,281.33618539472855Z" style="pointer-events: all; stroke-width: 0; fill: rgb(99, 110, 250); fill-opacity: 1; stroke: rgb(68, 68, 68); stroke-opacity: 1;"/><g class="slicetext"><text data-notex="1" class="slicetext" transform="translate(876.4110265153021,265.9363266058067)" text-anchor="middle" x="0" y="0" style="font-family: 'Open Sans', verdana, arial, sans-serif; font-size: 12px; fill: rgb(255, 255, 255); fill-opacity: 1; white-space: pre;">46.1%</text></g></g><g class="slice"><path class="surface" d="M777.2,216.27999999999997a57.12,57.12 0 0 0 -56.46786607075011,48.51334551548462l-84.70179910612516,-12.909981726773054a142.79999999999998,142.79999999999998 0 0 1 141.16966517687527,-121.28336378871155Z" style="pointer-events: all; stroke-width: 0; fill: rgb(239, 85, 59); fill-opacity: 1; stroke: rgb(68, 68, 68); stroke-opacity: 1;"/><g class="slicetext"><text data-notex="1" class="slicetext" transform="translate(712.0599987295682,202.3292783304713)" text-anchor="middle" x="0" y="0" style="font-family: 'Open Sans', verdana, arial, sans-serif; font-size: 12px; fill: rgb(68, 68, 68); fill-opacity: 1; white-space: pre;">22.6%</text></g></g><g class="slice"><path class="surface" d="M720.7321339292499,264.7933455154846a57.12,57.12 0 0 0 10.167766129878743,42.058039290907516l-69.45014991130705,50.177077209588205a142.79999999999998,142.79999999999998 0 0 1 -25.419415324696857,-105.14509822726878Z" style="pointer-events: all; stroke-width: 0; fill: rgb(0, 204, 150); fill-opacity: 1; stroke: rgb(68, 68, 68); stroke-opacity: 1;"/><g class="slicetext"><text data-notex="1" class="slicetext" transform="translate(676.5288695019682,302.4878086138167)" text-anchor="middle" x="0" y="0" style="font-family: 'Open Sans', verdana, arial, sans-serif; font-size: 12px; fill: rgb(68, 68, 68); fill-opacity: 1; white-space: pre;">12.4%</text></g></g><g class="slice"><path class="surface" d="M730.8999000591286,306.8513848063921a57.12,57.12 0 0 0 26.64564762290893,20.18066628324026l-29.481678476943657,80.4480766344486a142.79999999999998,142.79999999999998 0 0 1 -66.61411905727232,-50.45166570810065Z" style="pointer-events: all; stroke-width: 0; fill: rgb(171, 99, 250); fill-opacity: 1; stroke: rgb(68, 68, 68); stroke-opacity: 1;"/><g class="slicetext"><text data-notex="1" class="slicetext" transform="translate(710.4996151657338,366.2181998137136)" text-anchor="middle" x="0" y="0" style="font-family: 'Open Sans', verdana, arial, sans-serif; font-size: 12px; fill: rgb(68, 68, 68); fill-opacity: 1; white-space: pre;">9.45%</text></g></g><g class="slice"><path class="surface" d="M757.5455476820376,327.0320510896324a57.12,57.12 0 0 0 10.880183315063832,2.810013042225603l-13.16140350434791,84.663096197787a142.79999999999998,142.79999999999998 0 0 1 -27.20045828765958,-7.025032605564007Z" style="pointer-events: all; stroke-width: 0; fill: rgb(255, 151, 255); fill-opacity: 1; stroke: rgb(68, 68, 68); stroke-opacity: 1;"/><g class="slicetext"><text data-notex="1" class="slicetext" transform="translate(752.4695454350743,388.1498437972429)rotate(-75.5187269674667)" text-anchor="middle" x="0" y="0" style="font-family: 'Open Sans', verdana, arial, sans-serif; font-size: 12px; fill: rgb(68, 68, 68); fill-opacity: 1; white-space: pre;">3.14%</text></g></g><g class="slice"><path class="surface" d="M768.4257309971015,329.84206413185797a57.12,57.12 0 0 0 8.355511387575907,0.6764008515395177l-0.6281364229840481,85.67769747509628a142.79999999999998,142.79999999999998 0 0 1 -20.88877846893977,-1.691002128848794Z" style="pointer-events: all; stroke-width: 0; fill: rgb(255, 161, 90); fill-opacity: 1; stroke: rgb(68, 68, 68); stroke-opacity: 1;"/><g class="slicetext"><text data-notex="1" class="slicetext" transform="translate(741.9589037413105,427.6871769911012)" text-anchor="middle" x="0" y="0" style="font-family: 'Open Sans', verdana, arial, sans-serif; font-size: 12px; fill: rgb(42, 63, 95); fill-opacity: 1; white-space: pre;">2.34%</text></g></g><g class="slice"><path class="surface" d="M776.7812423846774,330.5184649833975a57.12,57.12 0 0 0 6.265474171084287,-0.2984834142647969l8.770074833642383,85.22997235369908a142.79999999999998,142.79999999999998 0 0 1 -15.663685427710718,0.7462085356619923Z" style="pointer-events: all; stroke-width: 0; fill: rgb(25, 211, 243); fill-opacity: 1; stroke: rgb(68, 68, 68); stroke-opacity: 1;"/><g class="slicetext"><text data-notex="1" class="slicetext" transform="translate(807.7139494322832,453.3522858208446)" text-anchor="middle" x="0" y="0" style="font-family: 'Open Sans', verdana, arial, sans-serif; font-size: 12px; fill: rgb(42, 63, 95); fill-opacity: 1; white-space: pre;">1.75%</text></g><path class="textline" stroke-width="1.5" d="M783.9951994322832,416.03823212826035V448.6022858208446h3.625" fill="none" style="stroke: rgb(42, 63, 95); stroke-opacity: 1;"/></g><g class="slice"><path class="surface" d="M783.0467165557616,330.2199815691327a57.12,57.12 0 0 0 5.419588896210198,-0.8220819526036167l16.89945817795768,83.99684942479365a142.79999999999998,142.79999999999998 0 0 1 -13.548972240525494,2.0552048815090416Z" style="pointer-events: all; stroke-width: 0; fill: rgb(255, 102, 146); fill-opacity: 1; stroke: rgb(68, 68, 68); stroke-opacity: 1;"/><g class="slicetext"><text data-notex="1" class="slicetext" transform="translate(822.3346954676141,438.8522858208446)" text-anchor="middle" x="0" y="0" style="font-family: 'Open Sans', verdana, arial, sans-serif; font-size: 12px; fill: rgb(42, 63, 95); fill-opacity: 1; white-space: pre;">1.53%</text></g><path class="textline" stroke-width="1.5" d="M798.6159454676141,414.5849754036461V434.1022858208446h3.625" fill="none" style="stroke: rgb(42, 63, 95); stroke-opacity: 1;"/></g><g class="slice"><path class="surface" d="M788.4663054519718,329.3978996165291a57.12,57.12 0 0 0 2.587591249114891,-0.5834254586376574l20.780845051630013,83.12171123683717a142.79999999999998,142.79999999999998 0 0 1 -6.468978122787227,1.4585636465941434Z" style="pointer-events: all; stroke-width: 0; fill: rgb(182, 232, 128); fill-opacity: 1; stroke: rgb(68, 68, 68); stroke-opacity: 1;"/><g class="slicetext"><text data-notex="1" class="slicetext" transform="translate(836.1399704619471,424.3522858208446)" text-anchor="middle" x="0" y="0" style="font-family: 'Open Sans', verdana, arial, sans-serif; font-size: 12px; fill: rgb(42, 63, 95); fill-opacity: 1; white-space: pre;">0.739%</text></g></g><g class="titletext"><text data-notex="1" class="titletext" transform="translate(777.2,273.4)translate(0,4.75)" text-anchor="middle" x="0" y="0" style="font-family: 'Open Sans', verdana, arial, sans-serif; font-size: 12px; fill: rgb(42, 63, 95); fill-opacity: 1; white-space: pre;">2018</text></g></g><g class="trace" stroke-linejoin="round" style="opacity: 1;"><g class="slice"><path class="surface" d="M234.73762968362882,668.1393298241413a55.44,55.44 0 0 0 -16.13762968362884,-108.47932982414146l0,-83.16a138.6,138.6 0 0 1 40.344074209072105,271.1983245603536Z" style="pointer-events: all; stroke-width: 0; fill: rgb(99, 110, 250); fill-opacity: 1; stroke: rgb(68, 68, 68); stroke-opacity: 1;"/><g class="slicetext"><text data-notex="1" class="slicetext" transform="translate(314.56395941756426,605.5741850353799)" text-anchor="middle" x="0" y="0" style="font-family: 'Open Sans', verdana, arial, sans-serif; font-size: 12px; fill: rgb(255, 255, 255); fill-opacity: 1; white-space: pre;">45.3%</text></g></g><g class="slice"><path class="surface" d="M218.6,559.6599999999999a55.44,55.44 0 0 0 -54.83773427187262,47.29036811092139l-82.25660140780892,-12.22444783361791a138.6,138.6 0 0 1 137.09433567968154,-118.22592027730347Z" style="pointer-events: all; stroke-width: 0; fill: rgb(239, 85, 59); fill-opacity: 1; stroke: rgb(68, 68, 68); stroke-opacity: 1;"/><g class="slicetext"><text data-notex="1" class="slicetext" transform="translate(155.23914793142066,546.3769925405009)" text-anchor="middle" x="0" y="0" style="font-family: 'Open Sans', verdana, arial, sans-serif; font-size: 12px; fill: rgb(68, 68, 68); fill-opacity: 1; white-space: pre;">22.7%</text></g></g><g class="slice"><path class="surface" d="M163.76226572812737,606.9503681109213a55.44,55.44 0 0 0 9.596846769053206,40.194221104065264l-67.86133125422911,48.06688382247997a138.6,138.6 0 0 1 -23.992116922633016,-100.48555276016315Z" style="pointer-events: all; stroke-width: 0; fill: rgb(0, 204, 150); fill-opacity: 1; stroke: rgb(68, 68, 68); stroke-opacity: 1;"/><g class="slicetext"><text data-notex="1" class="slicetext" transform="translate(120.3909888434123,643.2985656276265)" text-anchor="middle" x="0" y="0" style="font-family: 'Open Sans', verdana, arial, sans-serif; font-size: 12px; fill: rgb(68, 68, 68); fill-opacity: 1; white-space: pre;">12.2%</text></g></g><g class="slice"><path class="surface" d="M173.35911249718058,647.1445892149866a55.44,55.44 0 0 0 27.487036710294195,20.475829500373482l-26.630776188787824,78.78062807304019a138.6,138.6 0 0 1 -68.71759177573549,-51.189573750933704Z" style="pointer-events: all; stroke-width: 0; fill: rgb(171, 99, 250); fill-opacity: 1; stroke: rgb(68, 68, 68); stroke-opacity: 1;"/><g class="slicetext"><text data-notex="1" class="slicetext" transform="translate(155.3524576163664,704.7543756348484)" text-anchor="middle" x="0" y="0" style="font-family: 'Open Sans', verdana, arial, sans-serif; font-size: 12px; fill: rgb(68, 68, 68); fill-opacity: 1; white-space: pre;">10%</text></g></g><g class="slice"><path class="surface" d="M200.84614920747478,667.6204187153601a55.44,55.44 0 0 0 11.541245534616747,2.5703893737340766l-9.318907886862705,82.63621213364131a138.6,138.6 0 0 1 -28.853113836541866,-6.425973434335191Z" style="pointer-events: all; stroke-width: 0; fill: rgb(255, 151, 255); fill-opacity: 1; stroke: rgb(68, 68, 68); stroke-opacity: 1;"/><g class="slicetext"><text data-notex="1" class="slicetext" transform="translate(198.06984430670866,729.1323819248144)rotate(-77.44438013658987)" text-anchor="middle" x="0" y="0" style="font-family: 'Open Sans', verdana, arial, sans-serif; font-size: 12px; fill: rgb(68, 68, 68); fill-opacity: 1; white-space: pre;">3.4%</text></g></g><g class="slice"><path class="surface" d="M212.38739474209152,670.1908080890942a55.44,55.44 0 0 0 9.79068998176507,0.2336070430055088l5.367127085784899,82.98662269814957a138.6,138.6 0 0 1 -24.476724954412674,-0.584017607513772Z" style="pointer-events: all; stroke-width: 0; fill: rgb(255, 161, 90); fill-opacity: 1; stroke: rgb(68, 68, 68); stroke-opacity: 1;"/><g class="slicetext"><text data-notex="1" class="slicetext" transform="translate(220.5921808092855,730.73944513356)rotate(-88.63317513601112)" text-anchor="middle" x="0" y="0" style="font-family: 'Open Sans', verdana, arial, sans-serif; font-size: 12px; fill: rgb(68, 68, 68); fill-opacity: 1; white-space: pre;">2.82%</text></g></g><g class="slice"><path class="surface" d="M222.17808472385659,670.4244151320996a55.44,55.44 0 0 0 5.692488087243013,-0.665014479018089l13.905859216649418,81.98910097962244a138.6,138.6 0 0 1 -14.23122021810753,1.6625361975452222Z" style="pointer-events: all; stroke-width: 0; fill: rgb(25, 211, 243); fill-opacity: 1; stroke: rgb(68, 68, 68); stroke-opacity: 1;"/><g class="slicetext"><text data-notex="1" class="slicetext" transform="translate(258.40106971315333,788.9472364478335)" text-anchor="middle" x="0" y="0" style="font-family: 'Open Sans', verdana, arial, sans-serif; font-size: 12px; fill: rgb(42, 63, 95); fill-opacity: 1; white-space: pre;">1.65%</text></g><path class="textline" stroke-width="1.5" d="M234.6823197131533,752.7637896930195V784.1972364478335h3.625" fill="none" style="stroke: rgb(42, 63, 95); stroke-opacity: 1;"/></g><g class="slice"><path class="surface" d="M227.8705728110996,669.7594006530816a55.44,55.44 0 0 0 4.721342059473531,-1.014084750808911l20.987872305859714,80.46797385340908a138.6,138.6 0 0 1 -11.803355148683828,2.5352118770222773Z" style="pointer-events: all; stroke-width: 0; fill: rgb(255, 102, 146); fill-opacity: 1; stroke: rgb(68, 68, 68); stroke-opacity: 1;"/><g class="slicetext"><text data-notex="1" class="slicetext" transform="translate(271.4244759460499,774.4472364478335)" text-anchor="middle" x="0" y="0" style="font-family: 'Open Sans', verdana, arial, sans-serif; font-size: 12px; fill: rgb(42, 63, 95); fill-opacity: 1; white-space: pre;">1.39%</text></g><path class="textline" stroke-width="1.5" d="M247.70572594604988,750.6094709500167V769.6972364478335h3.625" fill="none" style="stroke: rgb(42, 63, 95); stroke-opacity: 1;"/></g><g class="slice"><path class="surface" d="M232.59191487057313,668.7453159022726a55.44,55.44 0 0 0 2.145714813055733,-0.605986078131275l24.206444525443313,79.55899473621216a138.6,138.6 0 0 1 -5.364287032639332,1.5149651953281875Z" style="pointer-events: all; stroke-width: 0; fill: rgb(182, 232, 128); fill-opacity: 1; stroke: rgb(68, 68, 68); stroke-opacity: 1;"/><g class="slicetext"><text data-notex="1" class="slicetext" transform="translate(279.9882974274839,759.9472364478335)" text-anchor="middle" x="0" y="0" style="font-family: 'Open Sans', verdana, arial, sans-serif; font-size: 12px; fill: rgb(42, 63, 95); fill-opacity: 1; white-space: pre;">0.64%</text></g></g><g class="titletext"><text data-notex="1" class="titletext" transform="translate(218.6,615.0999999999999)translate(0,4.75)" text-anchor="middle" x="0" y="0" style="font-family: 'Open Sans', verdana, arial, sans-serif; font-size: 12px; fill: rgb(42, 63, 95); fill-opacity: 1; white-space: pre;">2019</text></g></g><g class="trace" stroke-linejoin="round" style="opacity: 1;"><g class="slice"><path class="surface" d="M790.6549101709973,670.6126993785241a57.12,57.12 0 0 0 -13.45491017099718,-112.63269937852415l0,-85.67999999999999a142.79999999999998,142.79999999999998 0 0 1 33.63727542749295,281.58174844631037Z" style="pointer-events: all; stroke-width: 0; fill: rgb(99, 110, 250); fill-opacity: 1; stroke: rgb(68, 68, 68); stroke-opacity: 1;"/><g class="slicetext"><text data-notex="1" class="slicetext" transform="translate(876.4543150253057,607.9932488068026)" text-anchor="middle" x="0" y="0" style="font-family: 'Open Sans', verdana, arial, sans-serif; font-size: 12px; fill: rgb(255, 255, 255); fill-opacity: 1; white-space: pre;">46.2%</text></g></g><g class="slice"><path class="surface" d="M777.2,557.9799999999999a57.12,57.12 0 0 0 -56.590318726435946,49.359186483338675l-84.88547808965392,-11.641220274991985a142.79999999999998,142.79999999999998 0 0 1 141.47579681608985,-123.39796620834667Z" style="pointer-events: all; stroke-width: 0; fill: rgb(239, 85, 59); fill-opacity: 1; stroke: rgb(68, 68, 68); stroke-opacity: 1;"/><g class="slicetext"><text data-notex="1" class="slicetext" transform="translate(711.4945873936917,544.5187292405418)" text-anchor="middle" x="0" y="0" style="font-family: 'Open Sans', verdana, arial, sans-serif; font-size: 12px; fill: rgb(68, 68, 68); fill-opacity: 1; white-space: pre;">22.8%</text></g></g><g class="slice"><path class="surface" d="M720.6096812735641,607.3391864833386a57.12,57.12 0 0 0 11.31529981173527,42.58705451785891l-67.912528372051,52.239361501796374a142.79999999999998,142.79999999999998 0 0 1 -28.288249529338174,-106.46763629464726Z" style="pointer-events: all; stroke-width: 0; fill: rgb(0, 204, 150); fill-opacity: 1; stroke: rgb(68, 68, 68); stroke-opacity: 1;"/><g class="slicetext"><text data-notex="1" class="slicetext" transform="translate(677.6044277740446,646.3123551080629)" text-anchor="middle" x="0" y="0" style="font-family: 'Open Sans', verdana, arial, sans-serif; font-size: 12px; fill: rgb(68, 68, 68); fill-opacity: 1; white-space: pre;">12.6%</text></g></g><g class="slice"><path class="surface" d="M731.9249810852994,649.9262410011975a57.12,57.12 0 0 0 23.39268868935337,17.936037417279113l-32.823495338020955,79.14341762771504a142.79999999999998,142.79999999999998 0 0 1 -58.48172172338342,-44.84009354319778Z" style="pointer-events: all; stroke-width: 0; fill: rgb(171, 99, 250); fill-opacity: 1; stroke: rgb(68, 68, 68); stroke-opacity: 1;"/><g class="slicetext"><text data-notex="1" class="slicetext" transform="translate(708.1325040977523,709.9297870012231)" text-anchor="middle" x="0" y="0" style="font-family: 'Open Sans', verdana, arial, sans-serif; font-size: 12px; fill: rgb(68, 68, 68); fill-opacity: 1; white-space: pre;">8.31%</text></g></g><g class="slice"><path class="surface" d="M755.3176697746527,667.8622784184766a57.12,57.12 0 0 0 11.009920840490654,3.3134303525061344l-16.308614077284975,84.11356315647424a142.79999999999998,142.79999999999998 0 0 1 -27.524802101226634,-8.283575881265335Z" style="pointer-events: all; stroke-width: 0; fill: rgb(255, 151, 255); fill-opacity: 1; stroke: rgb(68, 68, 68); stroke-opacity: 1;"/><g class="slicetext"><text data-notex="1" class="slicetext" transform="translate(748.0592152075994,728.4121218165202)rotate(-73.2508575508001)" text-anchor="middle" x="0" y="0" style="font-family: 'Open Sans', verdana, arial, sans-serif; font-size: 12px; fill: rgb(68, 68, 68); fill-opacity: 1; white-space: pre;">3.21%</text></g></g><g class="slice"><path class="surface" d="M766.3275906151434,671.1757087709827a57.12,57.12 0 0 0 10.494337926699066,1.0430400070893826l-0.5671071872363774,85.67812316710831a142.79999999999998,142.79999999999998 0 0 1 -26.23584481674766,-2.607600017723456Z" style="pointer-events: all; stroke-width: 0; fill: rgb(255, 161, 90); fill-opacity: 1; stroke: rgb(68, 68, 68); stroke-opacity: 1;"/><g class="slicetext"><text data-notex="1" class="slicetext" transform="translate(770.2223413374245,733.330959422336)rotate(-84.32397137434486)" text-anchor="middle" x="0" y="0" style="font-family: 'Open Sans', verdana, arial, sans-serif; font-size: 12px; fill: rgb(68, 68, 68); fill-opacity: 1; white-space: pre;">2.94%</text></g></g><g class="slice"><path class="surface" d="M776.8219285418425,672.2187487780722a57.12,57.12 0 0 0 5.871951429241177,-0.2635671068883085l8.240819956625387,85.28277250677586a142.79999999999998,142.79999999999998 0 0 1 -14.679878573102942,0.6589177672207711Z" style="pointer-events: all; stroke-width: 0; fill: rgb(25, 211, 243); fill-opacity: 1; stroke: rgb(68, 68, 68); stroke-opacity: 1;"/><g class="slicetext"><text data-notex="1" class="slicetext" transform="translate(807.3219918987328,795.4208225245566)" text-anchor="middle" x="0" y="0" style="font-family: 'Open Sans', verdana, arial, sans-serif; font-size: 12px; fill: rgb(42, 63, 95); fill-opacity: 1; white-space: pre;">1.64%</text></g><path class="textline" stroke-width="1.5" d="M783.6032418987328,757.7563650636953V790.6708225245566h3.625" fill="none" style="stroke: rgb(42, 63, 95); stroke-opacity: 1;"/></g><g class="slice"><path class="surface" d="M782.6938799710837,671.9551816711838a57.12,57.12 0 0 0 4.948771018438303,-0.6978540966719834l15.663976484282841,84.23599136176787a142.79999999999998,142.79999999999998 0 0 1 -12.371927546095757,1.7446352416799584Z" style="pointer-events: all; stroke-width: 0; fill: rgb(255, 102, 146); fill-opacity: 1; stroke: rgb(68, 68, 68); stroke-opacity: 1;"/><g class="slicetext"><text data-notex="1" class="slicetext" transform="translate(820.8585037675439,780.9208225245566)" text-anchor="middle" x="0" y="0" style="font-family: 'Open Sans', verdana, arial, sans-serif; font-size: 12px; fill: rgb(42, 63, 95); fill-opacity: 1; white-space: pre;">1.39%</text></g><path class="textline" stroke-width="1.5" d="M797.1397537675439,756.5010120886328V776.1708225245566h3.625" fill="none" style="stroke: rgb(42, 63, 95); stroke-opacity: 1;"/></g><g class="slice"><path class="surface" d="M787.6426509895219,671.2573275745118a57.12,57.12 0 0 0 3.0122591814752213,-0.6446281959877525l20.18236525649567,83.26904906778624a142.79999999999998,142.79999999999998 0 0 1 -7.530647953688053,1.611570489969381Z" style="pointer-events: all; stroke-width: 0; fill: rgb(182, 232, 128); fill-opacity: 1; stroke: rgb(68, 68, 68); stroke-opacity: 1;"/><g class="slicetext"><text data-notex="1" class="slicetext" transform="translate(834.614067359328,766.4208225245566)" text-anchor="middle" x="0" y="0" style="font-family: 'Open Sans', verdana, arial, sans-serif; font-size: 12px; fill: rgb(42, 63, 95); fill-opacity: 1; white-space: pre;">0.858%</text></g></g><g class="titletext"><text data-notex="1" class="titletext" transform="translate(777.2,615.0999999999999)translate(0,4.75)" text-anchor="middle" x="0" y="0" style="font-family: 'Open Sans', verdana, arial, sans-serif; font-size: 12px; fill: rgb(42, 63, 95); fill-opacity: 1; white-space: pre;">2020</text></g></g><g class="trace" stroke-linejoin="round" style="opacity: 1;"><g class="slice"><path class="surface" d="M518.2342711725969,900.3980973701616a55.44,55.44 0 0 0 -22.434271172596905,-106.13809737016162l0,-83.16a138.6,138.6 0 0 1 56.085677931492256,265.345243425404Z" style="pointer-events: all; stroke-width: 0; fill: rgb(99, 110, 250); fill-opacity: 1; stroke: rgb(68, 68, 68); stroke-opacity: 1;"/><g class="slicetext"><text data-notex="1" class="slicetext" transform="translate(590.7227498073904,834.386302210122)" text-anchor="middle" x="0" y="0" style="font-family: 'Open Sans', verdana, arial, sans-serif; font-size: 12px; fill: rgb(255, 255, 255); fill-opacity: 1; white-space: pre;">43.4%</text></g></g><g class="slice"><path class="surface" d="M495.8,794.26a55.44,55.44 0 0 0 -54.08998799049081,43.2799506913598l-81.1349819857362,-18.240073962960302a138.6,138.6 0 0 1 135.22496997622702,-108.19987672839949Z" style="pointer-events: all; stroke-width: 0; fill: rgb(239, 85, 59); fill-opacity: 1; stroke: rgb(68, 68, 68); stroke-opacity: 1;"/><g class="slicetext"><text data-notex="1" class="slicetext" transform="translate(435.1852887982937,778.6955467584002)" text-anchor="middle" x="0" y="0" style="font-family: 'Open Sans', verdana, arial, sans-serif; font-size: 12px; fill: rgb(68, 68, 68); fill-opacity: 1; white-space: pre;">21.5%</text></g></g><g class="slice"><path class="surface" d="M441.7100120095092,837.5399506913599a55.44,55.44 0 0 0 8.17638504139468,43.23310297629172l-68.87040442364419,46.60958050147726a138.6,138.6 0 0 1 -20.440962603486696,-108.08275744072928Z" style="pointer-events: all; stroke-width: 0; fill: rgb(0, 204, 150); fill-opacity: 1; stroke: rgb(68, 68, 68); stroke-opacity: 1;"/><g class="slicetext"><text data-notex="1" class="slicetext" transform="translate(398.30296763797145,872.8889558487722)" text-anchor="middle" x="0" y="0" style="font-family: 'Open Sans', verdana, arial, sans-serif; font-size: 12px; fill: rgb(68, 68, 68); fill-opacity: 1; white-space: pre;">13%</text></g></g><g class="slice"><path class="surface" d="M449.8863970509039,880.7730536676515a55.44,55.44 0 0 0 32.679453315383306,22.764209296512064l-19.85122445056923,80.75589444624536a138.6,138.6 0 0 1 -81.69863328845827,-56.91052324128016Z" style="pointer-events: all; stroke-width: 0; fill: rgb(171, 99, 250); fill-opacity: 1; stroke: rgb(68, 68, 68); stroke-opacity: 1;"/><g class="slicetext"><text data-notex="1" class="slicetext" transform="translate(437.51404866814147,938.123146766579)" text-anchor="middle" x="0" y="0" style="font-family: 'Open Sans', verdana, arial, sans-serif; font-size: 12px; fill: rgb(68, 68, 68); fill-opacity: 1; white-space: pre;">11.7%</text></g></g><g class="slice"><path class="surface" d="M482.5658503662872,903.5372629641636a55.44,55.44 0 0 0 10.839991567098828,1.5510174492241164l-3.5912370999209906,83.08242062008154a138.6,138.6 0 0 1 -27.099978917747066,-3.8775436230602907Z" style="pointer-events: all; stroke-width: 0; fill: rgb(255, 161, 90); fill-opacity: 1; stroke: rgb(68, 68, 68); stroke-opacity: 1;"/><g class="slicetext"><text data-notex="1" class="slicetext" transform="translate(484.3871771456402,962.9993460789881)rotate(-81.85722171113161)" text-anchor="middle" x="0" y="0" style="font-family: 'Open Sans', verdana, arial, sans-serif; font-size: 12px; fill: rgb(68, 68, 68); fill-opacity: 1; white-space: pre;">3.15%</text></g></g><g class="slice"><path class="surface" d="M493.405841933386,905.0882804133878a55.44,55.44 0 0 0 10.561682901854146,-0.5532082600136619l12.251287252860227,82.25260823006104a138.6,138.6 0 0 1 -26.404207254635363,1.3830206500341546Z" style="pointer-events: all; stroke-width: 0; fill: rgb(25, 211, 243); fill-opacity: 1; stroke: rgb(68, 68, 68); stroke-opacity: 1;"/><g class="slicetext"><text data-notex="1" class="slicetext" transform="translate(497.0371334734847,964.1288355548949)rotate(87.00165593376266)" text-anchor="middle" x="0" y="0" style="font-family: 'Open Sans', verdana, arial, sans-serif; font-size: 12px; fill: rgb(68, 68, 68); fill-opacity: 1; white-space: pre;">3.04%</text></g></g><g class="slice"><path class="surface" d="M503.96752483524017,904.5350721533741a55.44,55.44 0 0 0 9.261766696135105,-2.2060554732732043l26.143937297062884,78.94352502015123a138.6,138.6 0 0 1 -23.154416740337762,5.515138683183011Z" style="pointer-events: all; stroke-width: 0; fill: rgb(255, 151, 255); fill-opacity: 1; stroke: rgb(68, 68, 68); stroke-opacity: 1;"/><g class="slicetext"><text data-notex="1" class="slicetext" transform="translate(518.0571605947135,963.6430869501647)rotate(76.60239190432378)" text-anchor="middle" x="0" y="0" style="font-family: 'Open Sans', verdana, arial, sans-serif; font-size: 12px; fill: rgb(68, 68, 68); fill-opacity: 1; white-space: pre;">2.74%</text></g></g><g class="slice"><path class="surface" d="M513.2292915313752,902.3290166801008a55.44,55.44 0 0 0 5.0049796412216585,-1.9309193099392248l33.65140675889537,76.0471460552424a138.6,138.6 0 0 1 -12.512449103054145,4.8272982748480615Z" style="pointer-events: all; stroke-width: 0; fill: rgb(255, 102, 146); fill-opacity: 1; stroke: rgb(68, 68, 68); stroke-opacity: 1;"/><g class="slicetext"><text data-notex="1" class="slicetext" transform="translate(569.4066255441111,990.0710298865027)" text-anchor="middle" x="0" y="0" style="font-family: 'Open Sans', verdana, arial, sans-serif; font-size: 12px; fill: rgb(42, 63, 95); fill-opacity: 1; white-space: pre;">1.54%</text></g></g><g class="titletext"><text data-notex="1" class="titletext" transform="translate(495.8,849.7)translate(0,4.75)" text-anchor="middle" x="0" y="0" style="font-family: 'Open Sans', verdana, arial, sans-serif; font-size: 12px; fill: rgb(42, 63, 95); fill-opacity: 1; white-space: pre;">2021</text></g></g></g><g class="iciclelayer"/><g class="treemaplayer"/><g class="sunburstlayer"/><g class="glimages"/><defs id="topdefs-7463a0"><g class="clips"/><clipPath id="legend7463a0"><rect width="252" height="181" x="0" y="0"/></clipPath></defs><g class="layer-above"><g class="imagelayer"/><g class="shapelayer"/></g><g class="infolayer"><g class="legend" pointer-events="all" transform="translate(374,378)"><rect class="bg" shape-rendering="crispEdges" style="stroke: rgb(68, 68, 68); stroke-opacity: 1; fill: rgb(255, 255, 255); fill-opacity: 1; stroke-width: 0px;" width="252" height="181" x="0" y="0"/><g class="scrollbox" transform="" clip-path="url(#legend7463a0)"><g class="groups"><g class="traces" transform="translate(0,14.5)" style="opacity: 1;"><text class="legendtext" text-anchor="start" x="40" y="4.680000000000001" style="font-family: 'Open Sans', verdana, arial, sans-serif; font-size: 12px; fill: rgb(42, 63, 95); fill-opacity: 1; white-space: pre;">Bachelor's degree</text><g class="layers" style="opacity: 1;"><g class="legendfill"/><g class="legendlines"/><g class="legendsymbols"><g class="legendpoints"><path class="legendpie" d="M6,6H-6V-6H6Z" transform="translate(20,0)" style="stroke-width: 0; fill: rgb(99, 110, 250); fill-opacity: 1; stroke: rgb(68, 68, 68); stroke-opacity: 1;"/></g></g></g><rect class="legendtoggle" x="0" y="-9.5" width="246.765625" height="19" style="fill: rgb(0, 0, 0); fill-opacity: 0;"/></g><g class="traces" transform="translate(0,33.5)" style="opacity: 1;"><text class="legendtext" text-anchor="start" x="40" y="4.680000000000001" style="font-family: 'Open Sans', verdana, arial, sans-serif; font-size: 12px; fill: rgb(42, 63, 95); fill-opacity: 1; white-space: pre;">Master's degree</text><g class="layers" style="opacity: 1;"><g class="legendfill"/><g class="legendlines"/><g class="legendsymbols"><g class="legendpoints"><path class="legendpie" d="M6,6H-6V-6H6Z" transform="translate(20,0)" style="stroke-width: 0; fill: rgb(239, 85, 59); fill-opacity: 1; stroke: rgb(68, 68, 68); stroke-opacity: 1;"/></g></g></g><rect class="legendtoggle" x="0" y="-9.5" width="246.765625" height="19" style="fill: rgb(0, 0, 0); fill-opacity: 0;"/></g><g class="traces" transform="translate(0,52.5)" style="opacity: 1;"><text class="legendtext" text-anchor="start" x="40" y="4.680000000000001" style="font-family: 'Open Sans', verdana, arial, sans-serif; font-size: 12px; fill: rgb(42, 63, 95); fill-opacity: 1; white-space: pre;">Formal study without a degree</text><g class="layers" style="opacity: 1;"><g class="legendfill"/><g class="legendlines"/><g class="legendsymbols"><g class="legendpoints"><path class="legendpie" d="M6,6H-6V-6H6Z" transform="translate(20,0)" style="stroke-width: 0; fill: rgb(0, 204, 150); fill-opacity: 1; stroke: rgb(68, 68, 68); stroke-opacity: 1;"/></g></g></g><rect class="legendtoggle" x="0" y="-9.5" width="246.765625" height="19" style="fill: rgb(0, 0, 0); fill-opacity: 0;"/></g><g class="traces" transform="translate(0,71.5)" style="opacity: 1;"><text class="legendtext" text-anchor="start" x="40" y="4.680000000000001" style="font-family: 'Open Sans', verdana, arial, sans-serif; font-size: 12px; fill: rgb(42, 63, 95); fill-opacity: 1; white-space: pre;">Secondary school</text><g class="layers" style="opacity: 1;"><g class="legendfill"/><g class="legendlines"/><g class="legendsymbols"><g class="legendpoints"><path class="legendpie" d="M6,6H-6V-6H6Z" transform="translate(20,0)" style="stroke-width: 0; fill: rgb(171, 99, 250); fill-opacity: 1; stroke: rgb(68, 68, 68); stroke-opacity: 1;"/></g></g></g><rect class="legendtoggle" x="0" y="-9.5" width="246.765625" height="19" style="fill: rgb(0, 0, 0); fill-opacity: 0;"/></g><g class="traces" transform="translate(0,90.5)" style="opacity: 1;"><text class="legendtext" text-anchor="start" x="40" y="4.680000000000001" style="font-family: 'Open Sans', verdana, arial, sans-serif; font-size: 12px; fill: rgb(42, 63, 95); fill-opacity: 1; white-space: pre;">Doctoral degree</text><g class="layers" style="opacity: 1;"><g class="legendfill"/><g class="legendlines"/><g class="legendsymbols"><g class="legendpoints"><path class="legendpie" d="M6,6H-6V-6H6Z" transform="translate(20,0)" style="stroke-width: 0; fill: rgb(255, 161, 90); fill-opacity: 1; stroke: rgb(68, 68, 68); stroke-opacity: 1;"/></g></g></g><rect class="legendtoggle" x="0" y="-9.5" width="246.765625" height="19" style="fill: rgb(0, 0, 0); fill-opacity: 0;"/></g><g class="traces" transform="translate(0,109.5)" style="opacity: 1;"><text class="legendtext" text-anchor="start" x="40" y="4.680000000000001" style="font-family: 'Open Sans', verdana, arial, sans-serif; font-size: 12px; fill: rgb(42, 63, 95); fill-opacity: 1; white-space: pre;">Primary/elementary school</text><g class="layers" style="opacity: 1;"><g class="legendfill"/><g class="legendlines"/><g class="legendsymbols"><g class="legendpoints"><path class="legendpie" d="M6,6H-6V-6H6Z" transform="translate(20,0)" style="stroke-width: 0; fill: rgb(25, 211, 243); fill-opacity: 1; stroke: rgb(68, 68, 68); stroke-opacity: 1;"/></g></g></g><rect class="legendtoggle" x="0" y="-9.5" width="246.765625" height="19" style="fill: rgb(0, 0, 0); fill-opacity: 0;"/></g><g class="traces" transform="translate(0,128.5)" style="opacity: 1;"><text class="legendtext" text-anchor="start" x="40" y="4.680000000000001" style="font-family: 'Open Sans', verdana, arial, sans-serif; font-size: 12px; fill: rgb(42, 63, 95); fill-opacity: 1; white-space: pre;">Professional degree (JD, MD, etc.)</text><g class="layers" style="opacity: 1;"><g class="legendfill"/><g class="legendlines"/><g class="legendsymbols"><g class="legendpoints"><path class="legendpie" d="M6,6H-6V-6H6Z" transform="translate(20,0)" style="stroke-width: 0; fill: rgb(255, 102, 146); fill-opacity: 1; stroke: rgb(68, 68, 68); stroke-opacity: 1;"/></g></g></g><rect class="legendtoggle" x="0" y="-9.5" width="246.765625" height="19" style="fill: rgb(0, 0, 0); fill-opacity: 0;"/></g><g class="traces" transform="translate(0,147.5)" style="opacity: 1;"><text class="legendtext" text-anchor="start" x="40" y="4.680000000000001" style="font-family: 'Open Sans', verdana, arial, sans-serif; font-size: 12px; fill: rgb(42, 63, 95); fill-opacity: 1; white-space: pre;">No formal education</text><g class="layers" style="opacity: 1;"><g class="legendfill"/><g class="legendlines"/><g class="legendsymbols"><g class="legendpoints"><path class="legendpie" d="M6,6H-6V-6H6Z" transform="translate(20,0)" style="stroke-width: 0; fill: rgb(182, 232, 128); fill-opacity: 1; stroke: rgb(68, 68, 68); stroke-opacity: 1;"/></g></g></g><rect class="legendtoggle" x="0" y="-9.5" width="246.765625" height="19" style="fill: rgb(0, 0, 0); fill-opacity: 0;"/></g><g class="traces" transform="translate(0,166.5)" style="opacity: 1;"><text class="legendtext" text-anchor="start" x="40" y="4.680000000000001" style="font-family: 'Open Sans', verdana, arial, sans-serif; font-size: 12px; fill: rgb(42, 63, 95); fill-opacity: 1; white-space: pre;">Associate degree</text><g class="layers" style="opacity: 1;"><g class="legendfill"/><g class="legendlines"/><g class="legendsymbols"><g class="legendpoints"><path class="legendpie" d="M6,6H-6V-6H6Z" transform="translate(20,0)" style="stroke-width: 0; fill: rgb(255, 151, 255); fill-opacity: 1; stroke: rgb(68, 68, 68); stroke-opacity: 1;"/></g></g></g><rect class="legendtoggle" x="0" y="-9.5" width="246.765625" height="19" style="fill: rgb(0, 0, 0); fill-opacity: 0;"/></g></g></g><rect class="scrollbar" rx="20" ry="3" width="0" height="0" style="fill: rgb(128, 139, 164); fill-opacity: 1;" x="0" y="0"/></g><g class="g-gtitle"><text class="gtitle" x="50" y="50" text-anchor="start" dy="0em" style="font-family: 'Open Sans', verdana, arial, sans-serif; font-size: 17px; fill: rgb(42, 63, 95); opacity: 1; font-weight: normal; white-space: pre;">Education of Respondents from 2017 to 2021</text></g></g></svg>